<!DOCTYPE svg PUBLIC "-//W3C//DTD SVG 1.1//EN" "http://www.w3.org/Graphics/SVG/1.1/DTD/svg11.dtd">
<!-- Uploaded to: SVG Repo, www.svgrepo.com, Transformed by: SVG Repo Mixer Tools -->
<svg height="800px" width="800px" version="1.1" id="_x32_" xmlns="http://www.w3.org/2000/svg" xmlns:xlink="http://www.w3.org/1999/xlink" viewBox="0 0 512 512" xml:space="preserve" fill="#ffffff" stroke="#ffffff">
<g id="SVGRepo_bgCarrier" stroke-width="0"/>
<g id="SVGRepo_tracerCarrier" stroke-linecap="round" stroke-linejoin="round"/>
<g id="SVGRepo_iconCarrier"> <style type="text/css"> .st0{fill:#ffffff;} </style> <g> <path class="st0" d="M486.675,100.502c-13.791-13.791-31.441-22.334-50.529-24.646c-2.293-18.963-10.82-36.703-24.658-50.537 C395.162,8.992,373.449,0,350.357,0c-23.092,0-44.801,8.992-61.131,25.318c-26.969,26.973-32.652,67.791-15.774,100.582 L125.843,273.496c-12.144-6.217-25.723-9.543-39.484-9.543c-23.074,0-44.764,8.984-61.078,25.297 c-33.707,33.703-33.707,88.545-0.002,122.248c13.783,13.791,31.434,22.334,50.533,24.646c2.289,18.963,10.818,36.703,24.656,50.535 c16.328,16.328,38.035,25.32,61.129,25.32c23.092,0,44.801-8.992,61.127-25.32c26.98-26.971,32.666-67.783,15.779-100.572 l147.606-147.596c12.146,6.217,25.723,9.535,39.486,9.535c23.074,0,44.768-8.978,61.08-25.297 C503.007,206.422,512,184.713,512,161.625C512,138.539,503.007,116.828,486.675,100.502z M460.441,196.518 c-9.308,9.305-21.682,14.428-34.846,14.428c-11.08,0-21.944-3.762-30.59-10.609l-12.951-10.246L190.058,382.078l10.252,12.949 c15.518,19.602,13.877,47.725-3.82,65.422c-9.322,9.318-21.715,14.449-34.892,14.449c-13.18,0-25.57-5.131-34.895-14.449 c-10.682-10.682-15.812-25.465-14.078-40.558l2.668-23.211l-23.215,2.666c-1.898,0.217-3.805,0.326-5.715,0.326 c-13.186,0-25.561-5.115-34.848-14.406c-19.236-19.238-19.236-50.543,0.004-69.783c9.305-9.305,21.676-14.428,34.84-14.428 c11.08,0,21.943,3.762,30.59,10.609l12.949,10.246L321.89,129.938l-10.246-12.951c-15.516-19.608-13.871-47.74,3.818-65.436 c9.324-9.318,21.717-14.449,34.894-14.449c13.182,0,25.574,5.131,34.896,14.449c10.68,10.682,15.811,25.465,14.074,40.558 l-2.152,18.731l-0.541,4.238l0.054-0.006l-0.027,0.248l23.215-2.666c15.037-1.74,29.926,3.441,40.564,14.08 C479.679,145.973,479.679,177.277,460.441,196.518z"/> </g> </g>
</svg>