<!DOCTYPE svg PUBLIC "-//W3C//DTD SVG 1.1//EN" "http://www.w3.org/Graphics/SVG/1.1/DTD/svg11.dtd">
<!-- Uploaded to: SVG Repo, www.svgrepo.com, Transformed by: SVG Repo Mixer Tools -->
<svg height="800px" width="800px" version="1.1" id="Layer_1" xmlns="http://www.w3.org/2000/svg" xmlns:xlink="http://www.w3.org/1999/xlink" viewBox="0 0 512.12 512.12" xml:space="preserve" fill="#00796B">
<g id="SVGRepo_bgCarrier" stroke-width="0"/>
<g id="SVGRepo_tracerCarrier" stroke-linecap="round" stroke-linejoin="round"/>
<g id="SVGRepo_iconCarrier"> <g transform="translate(1 1)"> <path style="fill:#00796B;" d="M422.058,502.587l-54.613-9.387c-9.387-1.707-18.773-2.56-29.013-4.267 c-13.653-2.56-28.16-3.413-41.813-3.413h-88.747c-15.36,0-30.72,1.707-46.08,4.267c-7.68,1.707-15.36,2.56-23.04,3.413l-51.2,8.533 c-12.8,2.56-23.893-11.093-18.773-23.04l24.747-61.44c-10.24-110.08-10.24-219.307,0-324.267l0,0L63.658,30.694 c-5.12-12.8,6.827-26.453,19.627-23.04l45.227,17.067c21.333,5.973,41.813,8.533,63.147,8.533h124.587 c21.333,0,41.813-2.56,62.293-7.68l46.933-17.067c12.8-3.413,23.893,8.533,20.48,21.333l-28.16,63.147l0,0 c12.8,107.52,12.8,215.893,0,324.267l23.893,63.147C445.098,492.347,434.858,504.294,422.058,502.587"/> <path style="fill:#1CD759;" d="M340.992,357.52c0,46.933-38.4,85.333-85.333,85.333s-85.333-38.4-85.333-85.333 s38.4-85.333,85.333-85.333S340.992,310.587,340.992,357.52"/> <path style="fill:#1CD759;" d="M255.658,272.187c-4.267,0-8.533,0.853-12.8,0.853c40.96,6.827,72.533,41.813,72.533,84.48 s-31.573,78.507-72.533,84.48c4.267,0.853,8.533,0.853,12.8,0.853c46.933,0,85.333-38.4,85.333-85.333 S302.592,272.187,255.658,272.187"/> <path style="fill:#00796B;" d="M442.538,29.84c3.413-12.8-7.68-24.747-20.48-21.333l-12.8,4.267 c3.413,4.267,5.12,10.24,3.413,17.067l-23.893,63.147l0,0c11.093,107.52,11.093,215.893,0,324.267l20.48,63.147 c1.707,7.68-0.853,15.36-5.973,18.773l16.213,2.56c12.8,1.707,23.04-9.387,18.773-21.333l-23.893-63.147 c12.8-108.373,12.8-216.747,0-324.267l0,0L442.538,29.84z"/> <path style="fill:#00796B;" d="M94.378,478.694l20.48-61.44c-8.533-110.08-8.533-219.307,0-324.267l0,0L90.112,30.694 c-1.707-5.973,0-12.8,3.413-17.92l-12.8-4.267c-13.653-3.413-25.6,9.387-20.48,22.187l29.867,62.293l0,0 c-10.24,104.96-10.24,214.187,0,324.267l-24.747,61.44c-5.12,11.947,5.12,25.6,18.773,23.04l16.213-2.56 C94.378,494.907,90.965,486.374,94.378,478.694"/> <polygon style="fill:#54C9FD;" points="161.792,220.987 349.525,220.987 349.525,84.454 161.792,84.454 "/> <polygon style="fill:#54C9FD;" points="323.925,220.987 349.525,220.987 349.525,84.454 323.925,84.454 "/> <path d="M425.472,511.12c-1.707,0-2.56,0-4.267,0l0,0l-54.613-9.387c-4.267-0.853-8.533-0.853-12.8-1.707 c-5.12-0.853-11.093-1.707-16.213-2.56c-12.8-2.56-25.6-3.413-40.107-3.413h-89.6c-14.507,0-29.013,1.707-44.373,4.267 c-4.267,0.853-8.533,1.707-12.8,1.707c-3.413,0.853-6.827,0.853-10.24,1.707l-51.2,8.533c-9.387,1.707-17.92-1.707-23.893-9.387 c-5.973-7.68-7.68-17.067-3.413-25.6l24.747-59.733C74.752,307.174,74.752,199.654,84.992,94.694L56.832,34.96 c-4.267-9.387-2.56-19.627,4.267-27.307c5.973-7.68,16.213-10.24,25.6-7.68h0.853l45.227,17.067 c19.627,5.12,39.253,7.68,59.733,7.68h124.587c20.48,0,40.107-2.56,59.733-7.68l46.08-17.067h0.853 c9.387-2.56,17.92,0,24.747,6.827c6.827,6.827,8.533,16.213,5.973,24.747V32.4l-28.16,62.293c12.8,106.667,12.8,215.04,0,321.707 l23.04,61.44c2.56,9.387,0.853,17.92-5.12,24.747C439.978,507.707,433.152,511.12,425.472,511.12z M423.765,494.054 c4.267,0.853,6.827-1.707,7.68-2.56c0.853-0.853,3.413-4.267,1.707-7.68l-23.893-63.147c0-1.707,0-3.413,0-4.267 c12.8-107.52,12.8-215.893,0-322.56c0-1.707,0-3.413,0.853-4.267l28.16-63.147c0.853-4.267-0.853-6.827-1.707-7.68 c-1.707-0.853-4.267-3.413-8.533-2.56l-46.08,17.067h-0.853c-21.333,5.12-42.667,7.68-64,7.68h-125.44 c-21.333,0.853-42.667-1.707-64-6.827h-0.853l-45.227-17.92c-2.56,0-5.973,0.853-7.68,2.56c-2.56,2.56-3.413,5.973-1.707,9.387 l29.013,61.44c0.853,0.853,0.853,2.56,0.853,4.267c-10.24,104.96-10.24,213.333,0,322.56c0,1.707,0,2.56-0.853,4.267l-24.747,61.44 c-1.707,4.267,0,7.68,1.707,8.533c0.853,0.853,3.413,3.413,7.68,3.413l51.2-8.533c3.413-0.853,6.827-0.853,11.093-1.707 c4.267-0.853,7.68-0.853,11.947-1.707c16.213-2.56,32.427-4.267,47.787-4.267h89.6c15.36,0,29.867,0.853,43.52,3.413 c5.12,0.853,11.093,1.707,16.213,2.56c4.267,0.853,8.533,0.853,12.8,1.707L423.765,494.054z"/> <path d="M349.525,229.52H161.792c-5.12,0-8.533-3.413-8.533-8.533V84.454c0-5.12,3.413-8.533,8.533-8.533h187.733 c5.12,0,8.533,3.413,8.533,8.533v136.533C358.058,226.107,354.645,229.52,349.525,229.52z M170.325,212.454h170.667V92.987H170.325 V212.454z"/> <path d="M281.258,135.654h-51.2c-5.12,0-8.533-3.413-8.533-8.533c0-5.12,3.413-8.533,8.533-8.533h51.2 c5.12,0,8.533,3.413,8.533,8.533C289.792,132.24,286.378,135.654,281.258,135.654z"/> <path d="M306.858,178.32h-102.4c-5.12,0-8.533-3.413-8.533-8.533c0-5.12,3.413-8.533,8.533-8.533h102.4 c5.12,0,8.533,3.413,8.533,8.533C315.392,174.907,311.978,178.32,306.858,178.32z"/> <path d="M255.658,451.387c-52.053,0-93.867-41.813-93.867-93.867s41.813-93.867,93.867-93.867s93.867,41.813,93.867,93.867 S307.712,451.387,255.658,451.387z M255.658,280.72c-42.667,0-76.8,34.133-76.8,76.8s34.133,76.8,76.8,76.8s76.8-34.133,76.8-76.8 S298.325,280.72,255.658,280.72z"/> <path d="M230.058,331.92c-2.56,0-4.267-0.853-5.973-2.56c-3.413-3.413-3.413-8.533,0-11.947l17.067-17.067 c3.413-3.413,8.533-3.413,11.947,0c3.413,3.413,3.413,8.533,0,11.947l-17.067,17.067 C234.325,331.067,232.618,331.92,230.058,331.92z"/> <path d="M221.525,374.587c-2.56,0-4.267-0.853-5.973-2.56c-3.413-3.413-3.413-8.533,0-11.947l17.067-17.067 c3.413-3.413,8.533-3.413,11.947,0c3.413,3.413,3.413,8.533,0,11.947l-17.067,17.067 C225.792,373.734,224.085,374.587,221.525,374.587z"/> <path d="M170.325,374.587c-2.56,0-4.267-0.853-5.973-2.56c-3.413-3.413-3.413-8.533,0-11.947l17.067-17.067 c3.413-3.413,8.533-3.413,11.947,0c3.413,3.413,3.413,8.533,0,11.947l-17.067,17.067 C175.445,373.734,172.885,374.587,170.325,374.587z"/> <path d="M204.458,434.32c-2.56,0-4.267-0.853-5.973-2.56c-3.413-3.413-3.413-8.533,0-11.947l17.067-17.067 c3.413-3.413,8.533-3.413,11.947,0c3.413,3.413,3.413,8.533,0,11.947l-17.067,17.067 C208.725,433.467,207.018,434.32,204.458,434.32z"/> <path d="M264.192,408.72c-2.56,0-4.267-0.853-5.973-2.56c-3.413-3.413-3.413-8.533,0-11.947l17.067-17.067 c3.413-3.413,8.533-3.413,11.947,0c3.413,3.413,3.413,8.533,0,11.947l-17.067,17.067 C268.458,407.867,266.752,408.72,264.192,408.72z"/> <path d="M272.725,357.52c-2.56,0-4.267-0.853-5.973-2.56c-3.413-3.413-3.413-8.533,0-11.947l17.067-17.067 c3.413-3.413,8.533-3.413,11.947,0s3.413,8.533,0,11.947l-17.067,17.067C276.992,356.667,275.285,357.52,272.725,357.52z"/> <path d="M281.258,306.32c-2.56,0-4.267-0.853-5.973-2.56c-3.413-3.413-3.413-8.533,0-11.947l15.36-15.36 c3.413-3.413,8.533-3.413,11.947,0s3.413,8.533,0,11.947l-15.36,15.36C285.525,305.467,283.818,306.32,281.258,306.32z"/> <path d="M323.925,374.587c-2.56,0-4.267-0.853-5.973-2.56c-3.413-3.413-3.413-8.533,0-11.947l17.067-17.067 c3.413-3.413,8.533-3.413,11.947,0c3.413,3.413,3.413,8.533,0,11.947l-17.067,17.067 C328.192,373.734,326.485,374.587,323.925,374.587z"/> </g> </g>
</svg>