<!DOCTYPE svg PUBLIC "-//W3C//DTD SVG 1.1//EN" "http://www.w3.org/Graphics/SVG/1.1/DTD/svg11.dtd">
<!-- Uploaded to: SVG Repo, www.svgrepo.com, Transformed by: SVG Repo Mixer Tools -->
<svg fill="#00796B" height="800px" width="800px" version="1.1" id="Layer_1" xmlns="http://www.w3.org/2000/svg" xmlns:xlink="http://www.w3.org/1999/xlink" viewBox="0 0 511.504 511.504" xml:space="preserve">
<g id="SVGRepo_bgCarrier" stroke-width="0"/>
<g id="SVGRepo_tracerCarrier" stroke-linecap="round" stroke-linejoin="round"/>
<g id="SVGRepo_iconCarrier"> <g> <g> <g> <path d="M298.463,158.09c-8.695-17.468-22.989-31.317-40.969-39.501c-17.98-8.175-37.803-9.839-56.687-4.941 C218.728,149.523,259.628,168.142,298.463,158.09z"/> <path d="M200.226,192.798c-33.476,22.067-47.078,64.905-32.469,102.238C201.233,272.977,214.835,230.131,200.226,192.798z"/> <path d="M454.062,8.497c-6.272-7.091-15.821-10.044-24.934-7.714c-0.341,0.085-0.666,0.188-0.99,0.316l-44.092,17.229 c-19.004,4.813-38.562,7.253-58.129,7.253H185.587c-19.576,0-39.125-2.44-58.129-7.253L83.374,1.099 c-0.324-0.128-0.657-0.23-0.998-0.316c-9.114-2.321-18.662,0.623-24.934,7.714c-6.443,7.287-8.235,17.459-4.676,26.564 l23.424,59.494c-21.956,100.898-21.931,209.544,0.094,323.012l-19.362,58.88c-3.396,8.687-1.86,18.551,4.002,25.754 c4.873,5.99,11.887,9.293,19.328,9.293c1.417,0,2.859-0.111,4.301-0.367l50.458-8.585c3.396-0.58,6.81-1.084,10.189-1.587 c4.147-0.614,8.252-1.229,12.237-1.946c15.095-2.722,29.807-4.096,43.708-4.096h109.218c13.901,0,28.604,1.374,43.699,4.096 c3.994,0.717,8.098,1.331,12.237,1.946c3.379,0.504,6.793,1.007,10.189,1.587l50.458,8.585c9.003,1.562,17.826-1.8,23.629-8.926 c5.871-7.202,7.407-17.067,4.164-25.31l-19.524-59.341c22.374-117.06,22.409-225.724,0.119-323.046l23.407-59.46 C462.297,25.957,460.505,15.785,454.062,8.497z M186.227,100.393c25.643-9.6,53.453-8.653,78.345,2.662 c24.875,11.324,43.87,31.684,53.47,57.318c0.785,2.116,0.708,4.463-0.23,6.528c-0.939,2.057-2.654,3.661-4.77,4.454 c-11.793,4.42-23.893,6.511-35.806,6.511c-41.489,0-80.614-25.412-96.009-66.492C179.579,106.964,181.815,102.04,186.227,100.393 z M163.903,315.715c-0.862,0-1.732-0.137-2.586-0.401c-2.15-0.683-3.951-2.202-4.992-4.207 c-25.967-50.133-6.306-112.06,43.827-138.027c2.014-1.041,4.352-1.237,6.511-0.555s3.951,2.202,4.992,4.207 c25.967,50.133,6.306,112.051-43.827,138.027C166.609,315.39,165.26,315.715,163.903,315.715z M298.414,401.048 c4.719,0,8.533,3.814,8.533,8.533c0,4.719-3.814,8.533-8.533,8.533h-85.333c-4.71,0-8.533-3.814-8.533-8.533 c0-4.719,3.823-8.533,8.533-8.533H298.414z M315.481,452.248H196.014c-4.71,0-8.533-3.814-8.533-8.533s3.823-8.533,8.533-8.533 h119.467c4.719,0,8.533,3.814,8.533,8.533S320.2,452.248,315.481,452.248z M248.767,298.648c-4.71,0-8.533-3.814-8.533-8.533 c0-56.465,45.935-102.4,102.4-102.4c4.71,0,8.533,3.814,8.533,8.533C351.168,252.713,305.233,298.648,248.767,298.648z"/> <path d="M257.771,281.107c39.876-4.198,71.654-35.977,75.861-75.853C293.756,209.461,261.978,241.23,257.771,281.107z"/> </g> </g> </g> </g>
</svg>